<?xml version="1.0" encoding="UTF-8" standalone="no"?>
<!DOCTYPE svg PUBLIC "-//W3C//DTD SVG 1.1//EN"
 "http://www.w3.org/Graphics/SVG/1.1/DTD/svg11.dtd">
<!-- Generated by graphviz version 2.47.3 (20210619.1520)
 -->
<!-- Title: dependencies Pages: 1 -->
<svg width="418pt" height="247pt"
 viewBox="0.00 0.00 418.00 246.80" xmlns="http://www.w3.org/2000/svg" xmlns:xlink="http://www.w3.org/1999/xlink">
<g id="graph0" class="graph" transform="scale(1 1) rotate(0) translate(4 242.8)">
<title>dependencies</title>
<polygon fill="white" stroke="transparent" points="-4,4 -4,-242.8 414,-242.8 414,4 -4,4"/>
<text text-anchor="middle" x="205" y="-8.2" font-family="sans-serif" font-size="14.00">dependencies</text>
<g id="clust1" class="cluster">
<title>cluster_MusicModule</title>
<polygon fill="none" stroke="black" stroke-dasharray="1,5" points="8,-32.8 8,-230.8 402,-230.8 402,-32.8 8,-32.8"/>
</g>
<g id="clust4" class="cluster">
<title>cluster_MusicModule_exports</title>
<polygon fill="none" stroke="black" points="123,-170.8 123,-222.8 235,-222.8 235,-170.8 123,-170.8"/>
</g>
<g id="clust6" class="cluster">
<title>cluster_MusicModule_providers</title>
<polygon fill="none" stroke="black" points="250,-40.8 250,-92.8 394,-92.8 394,-40.8 250,-40.8"/>
</g>
<g id="clust3" class="cluster">
<title>cluster_MusicModule_imports</title>
<polygon fill="none" stroke="black" points="16,-40.8 16,-92.8 242,-92.8 242,-40.8 16,-40.8"/>
</g>
<!-- DatabaseModule -->
<g id="node1" class="node">
<title>DatabaseModule</title>
<polygon fill="#8dd3c7" stroke="black" points="234.35,-84.8 231.35,-88.8 210.35,-88.8 207.35,-84.8 123.65,-84.8 123.65,-48.8 234.35,-48.8 234.35,-84.8"/>
<text text-anchor="middle" x="179" y="-62.6" font-family="Times,serif" font-size="14.00">DatabaseModule</text>
</g>
<!-- MusicModule -->
<g id="node3" class="node">
<title>MusicModule</title>
<polygon fill="#8dd3c7" stroke="black" points="226.05,-149.8 223.05,-153.8 202.05,-153.8 199.05,-149.8 131.95,-149.8 131.95,-113.8 226.05,-113.8 226.05,-149.8"/>
<text text-anchor="middle" x="179" y="-127.6" font-family="Times,serif" font-size="14.00">MusicModule</text>
</g>
<!-- DatabaseModule&#45;&gt;MusicModule -->
<g id="edge1" class="edge">
<title>DatabaseModule&#45;&gt;MusicModule</title>
<path fill="none" stroke="black" d="M179,-84.91C179,-84.91 179,-103.79 179,-103.79"/>
<polygon fill="black" stroke="black" points="175.5,-103.79 179,-113.79 182.5,-103.79 175.5,-103.79"/>
</g>
<!-- FileModule -->
<g id="node2" class="node">
<title>FileModule</title>
<polygon fill="#8dd3c7" stroke="black" points="105.83,-84.8 102.83,-88.8 81.83,-88.8 78.83,-84.8 24.17,-84.8 24.17,-48.8 105.83,-48.8 105.83,-84.8"/>
<text text-anchor="middle" x="65" y="-62.6" font-family="Times,serif" font-size="14.00">FileModule</text>
</g>
<!-- FileModule&#45;&gt;MusicModule -->
<g id="edge2" class="edge">
<title>FileModule&#45;&gt;MusicModule</title>
<path fill="none" stroke="black" d="M65,-84.91C65,-104.14 65,-131.8 65,-131.8 65,-131.8 121.64,-131.8 121.64,-131.8"/>
<polygon fill="black" stroke="black" points="121.64,-135.3 131.64,-131.8 121.64,-128.3 121.64,-135.3"/>
</g>
<!-- MusicService  -->
<g id="node4" class="node">
<title>MusicService </title>
<polygon fill="#fb8072" stroke="black" points="227.47,-214.8 130.53,-214.8 130.53,-178.8 227.47,-178.8 227.47,-214.8"/>
<text text-anchor="middle" x="179" y="-192.6" font-family="Times,serif" font-size="14.00">MusicService </text>
</g>
<!-- MusicModule&#45;&gt;MusicService  -->
<g id="edge3" class="edge">
<title>MusicModule&#45;&gt;MusicService </title>
<path fill="none" stroke="black" stroke-dasharray="5,2" d="M179,-149.91C179,-149.91 179,-168.79 179,-168.79"/>
<polygon fill="black" stroke="black" points="175.5,-168.79 179,-178.79 182.5,-168.79 175.5,-168.79"/>
</g>
<!-- MusicService -->
<g id="node5" class="node">
<title>MusicService</title>
<ellipse fill="#fdb462" stroke="black" cx="322" cy="-66.8" rx="64.26" ry="18"/>
<text text-anchor="middle" x="322" y="-62.6" font-family="Times,serif" font-size="14.00">MusicService</text>
</g>
<!-- MusicService&#45;&gt;MusicModule -->
<g id="edge4" class="edge">
<title>MusicService&#45;&gt;MusicModule</title>
<path fill="none" stroke="black" d="M322,-84.91C322,-104.14 322,-131.8 322,-131.8 322,-131.8 236.22,-131.8 236.22,-131.8"/>
<polygon fill="black" stroke="black" points="236.22,-128.3 226.22,-131.8 236.22,-135.3 236.22,-128.3"/>
</g>
</g>
</svg>
