<?xml version="1.0" encoding="UTF-8" standalone="no"?>
<!DOCTYPE svg PUBLIC "-//W3C//DTD SVG 1.1//EN"
 "http://www.w3.org/Graphics/SVG/1.1/DTD/svg11.dtd">
<!-- Generated by graphviz version 2.47.3 (20210619.1520)
 -->
<!-- Title: dependencies Pages: 1 -->
<svg width="428pt" height="247pt"
 viewBox="0.00 0.00 428.00 246.80" xmlns="http://www.w3.org/2000/svg" xmlns:xlink="http://www.w3.org/1999/xlink">
<g id="graph0" class="graph" transform="scale(1 1) rotate(0) translate(4 242.8)">
<title>dependencies</title>
<polygon fill="white" stroke="transparent" points="-4,4 -4,-242.8 424,-242.8 424,4 -4,4"/>
<text text-anchor="middle" x="210" y="-8.2" font-family="sans-serif" font-size="14.00">dependencies</text>
<g id="clust1" class="cluster">
<title>cluster_PlaylistModule</title>
<polygon fill="none" stroke="black" stroke-dasharray="1,5" points="8,-32.8 8,-230.8 412,-230.8 412,-32.8 8,-32.8"/>
</g>
<g id="clust4" class="cluster">
<title>cluster_PlaylistModule_exports</title>
<polygon fill="none" stroke="black" points="119,-170.8 119,-222.8 239,-222.8 239,-170.8 119,-170.8"/>
</g>
<g id="clust6" class="cluster">
<title>cluster_PlaylistModule_providers</title>
<polygon fill="none" stroke="black" points="250,-40.8 250,-92.8 404,-92.8 404,-40.8 250,-40.8"/>
</g>
<g id="clust3" class="cluster">
<title>cluster_PlaylistModule_imports</title>
<polygon fill="none" stroke="black" points="16,-40.8 16,-92.8 242,-92.8 242,-40.8 16,-40.8"/>
</g>
<!-- DatabaseModule -->
<g id="node1" class="node">
<title>DatabaseModule</title>
<polygon fill="#8dd3c7" stroke="black" points="234.35,-84.8 231.35,-88.8 210.35,-88.8 207.35,-84.8 123.65,-84.8 123.65,-48.8 234.35,-48.8 234.35,-84.8"/>
<text text-anchor="middle" x="179" y="-62.6" font-family="Times,serif" font-size="14.00">DatabaseModule</text>
</g>
<!-- PlaylistModule -->
<g id="node3" class="node">
<title>PlaylistModule</title>
<polygon fill="#8dd3c7" stroke="black" points="229.55,-149.8 226.55,-153.8 205.55,-153.8 202.55,-149.8 128.45,-149.8 128.45,-113.8 229.55,-113.8 229.55,-149.8"/>
<text text-anchor="middle" x="179" y="-127.6" font-family="Times,serif" font-size="14.00">PlaylistModule</text>
</g>
<!-- DatabaseModule&#45;&gt;PlaylistModule -->
<g id="edge1" class="edge">
<title>DatabaseModule&#45;&gt;PlaylistModule</title>
<path fill="none" stroke="black" d="M179,-84.91C179,-84.91 179,-103.79 179,-103.79"/>
<polygon fill="black" stroke="black" points="175.5,-103.79 179,-113.79 182.5,-103.79 175.5,-103.79"/>
</g>
<!-- FileModule -->
<g id="node2" class="node">
<title>FileModule</title>
<polygon fill="#8dd3c7" stroke="black" points="105.83,-84.8 102.83,-88.8 81.83,-88.8 78.83,-84.8 24.17,-84.8 24.17,-48.8 105.83,-48.8 105.83,-84.8"/>
<text text-anchor="middle" x="65" y="-62.6" font-family="Times,serif" font-size="14.00">FileModule</text>
</g>
<!-- FileModule&#45;&gt;PlaylistModule -->
<g id="edge2" class="edge">
<title>FileModule&#45;&gt;PlaylistModule</title>
<path fill="none" stroke="black" d="M65,-84.91C65,-104.14 65,-131.8 65,-131.8 65,-131.8 118.33,-131.8 118.33,-131.8"/>
<polygon fill="black" stroke="black" points="118.33,-135.3 128.33,-131.8 118.33,-128.3 118.33,-135.3"/>
</g>
<!-- PlaylistService  -->
<g id="node4" class="node">
<title>PlaylistService </title>
<polygon fill="#fb8072" stroke="black" points="230.98,-214.8 127.02,-214.8 127.02,-178.8 230.98,-178.8 230.98,-214.8"/>
<text text-anchor="middle" x="179" y="-192.6" font-family="Times,serif" font-size="14.00">PlaylistService </text>
</g>
<!-- PlaylistModule&#45;&gt;PlaylistService  -->
<g id="edge3" class="edge">
<title>PlaylistModule&#45;&gt;PlaylistService </title>
<path fill="none" stroke="black" stroke-dasharray="5,2" d="M179,-149.91C179,-149.91 179,-168.79 179,-168.79"/>
<polygon fill="black" stroke="black" points="175.5,-168.79 179,-178.79 182.5,-168.79 175.5,-168.79"/>
</g>
<!-- PlaylistService -->
<g id="node5" class="node">
<title>PlaylistService</title>
<ellipse fill="#fdb462" stroke="black" cx="327" cy="-66.8" rx="68.93" ry="18"/>
<text text-anchor="middle" x="327" y="-62.6" font-family="Times,serif" font-size="14.00">PlaylistService</text>
</g>
<!-- PlaylistService&#45;&gt;PlaylistModule -->
<g id="edge4" class="edge">
<title>PlaylistService&#45;&gt;PlaylistModule</title>
<path fill="none" stroke="black" d="M327,-84.91C327,-104.14 327,-131.8 327,-131.8 327,-131.8 239.93,-131.8 239.93,-131.8"/>
<polygon fill="black" stroke="black" points="239.93,-128.3 229.93,-131.8 239.93,-135.3 239.93,-128.3"/>
</g>
</g>
</svg>
