<?xml version="1.0" encoding="UTF-8" standalone="no"?>
<!DOCTYPE svg PUBLIC "-//W3C//DTD SVG 1.1//EN"
 "http://www.w3.org/Graphics/SVG/1.1/DTD/svg11.dtd">
<!-- Generated by graphviz version 2.47.3 (20210619.1520)
 -->
<!-- Title: dependencies Pages: 1 -->
<svg width="824pt" height="174pt"
 viewBox="0.00 0.00 824.00 173.80" xmlns="http://www.w3.org/2000/svg" xmlns:xlink="http://www.w3.org/1999/xlink">
<g id="graph0" class="graph" transform="scale(1 1) rotate(0) translate(4 169.8)">
<title>dependencies</title>
<polygon fill="white" stroke="transparent" points="-4,4 -4,-169.8 820,-169.8 820,4 -4,4"/>
<text text-anchor="middle" x="408" y="-8.2" font-family="sans-serif" font-size="14.00">dependencies</text>
<g id="clust1" class="cluster">
<title>cluster_AppModule</title>
<polygon fill="none" stroke="black" stroke-dasharray="1,5" points="8,-32.8 8,-157.8 808,-157.8 808,-32.8 8,-32.8"/>
</g>
<g id="clust3" class="cluster">
<title>cluster_AppModule_imports</title>
<polygon fill="none" stroke="black" points="16,-40.8 16,-92.8 800,-92.8 800,-40.8 16,-40.8"/>
</g>
<!-- AlbumModule -->
<g id="node1" class="node">
<title>AlbumModule</title>
<polygon fill="#8dd3c7" stroke="black" points="792.44,-84.8 789.44,-88.8 768.44,-88.8 765.44,-84.8 693.56,-84.8 693.56,-48.8 792.44,-48.8 792.44,-84.8"/>
<text text-anchor="middle" x="743" y="-62.6" font-family="Times,serif" font-size="14.00">AlbumModule</text>
</g>
<!-- AppModule -->
<g id="node8" class="node">
<title>AppModule</title>
<polygon fill="#8dd3c7" stroke="black" points="442.66,-149.8 439.66,-153.8 418.66,-153.8 415.66,-149.8 359.34,-149.8 359.34,-113.8 442.66,-113.8 442.66,-149.8"/>
<text text-anchor="middle" x="401" y="-127.6" font-family="Times,serif" font-size="14.00">AppModule</text>
</g>
<!-- AlbumModule&#45;&gt;AppModule -->
<g id="edge1" class="edge">
<title>AlbumModule&#45;&gt;AppModule</title>
<path fill="none" stroke="black" d="M743,-85.09C743,-107.01 743,-140.8 743,-140.8 743,-140.8 452.94,-140.8 452.94,-140.8"/>
<polygon fill="black" stroke="black" points="452.94,-137.3 442.94,-140.8 452.94,-144.3 452.94,-137.3"/>
</g>
<!-- AuthModule -->
<g id="node2" class="node">
<title>AuthModule</title>
<polygon fill="#8dd3c7" stroke="black" points="675.55,-84.8 672.55,-88.8 651.55,-88.8 648.55,-84.8 588.45,-84.8 588.45,-48.8 675.55,-48.8 675.55,-84.8"/>
<text text-anchor="middle" x="632" y="-62.6" font-family="Times,serif" font-size="14.00">AuthModule</text>
</g>
<!-- AuthModule&#45;&gt;AppModule -->
<g id="edge2" class="edge">
<title>AuthModule&#45;&gt;AppModule</title>
<path fill="none" stroke="black" d="M632,-84.91C632,-104.14 632,-131.8 632,-131.8 632,-131.8 452.83,-131.8 452.83,-131.8"/>
<polygon fill="black" stroke="black" points="452.83,-128.3 442.83,-131.8 452.83,-135.3 452.83,-128.3"/>
</g>
<!-- DatabaseModule -->
<g id="node3" class="node">
<title>DatabaseModule</title>
<polygon fill="#8dd3c7" stroke="black" points="570.35,-84.8 567.35,-88.8 546.35,-88.8 543.35,-84.8 459.65,-84.8 459.65,-48.8 570.35,-48.8 570.35,-84.8"/>
<text text-anchor="middle" x="515" y="-62.6" font-family="Times,serif" font-size="14.00">DatabaseModule</text>
</g>
<!-- DatabaseModule&#45;&gt;AppModule -->
<g id="edge3" class="edge">
<title>DatabaseModule&#45;&gt;AppModule</title>
<path fill="none" stroke="black" d="M515,-84.83C515,-101.2 515,-122.8 515,-122.8 515,-122.8 452.8,-122.8 452.8,-122.8"/>
<polygon fill="black" stroke="black" points="452.8,-119.3 442.8,-122.8 452.8,-126.3 452.8,-119.3"/>
</g>
<!-- FileModule -->
<g id="node4" class="node">
<title>FileModule</title>
<polygon fill="#8dd3c7" stroke="black" points="441.83,-84.8 438.83,-88.8 417.83,-88.8 414.83,-84.8 360.17,-84.8 360.17,-48.8 441.83,-48.8 441.83,-84.8"/>
<text text-anchor="middle" x="401" y="-62.6" font-family="Times,serif" font-size="14.00">FileModule</text>
</g>
<!-- FileModule&#45;&gt;AppModule -->
<g id="edge4" class="edge">
<title>FileModule&#45;&gt;AppModule</title>
<path fill="none" stroke="black" d="M401,-84.91C401,-84.91 401,-103.79 401,-103.79"/>
<polygon fill="black" stroke="black" points="397.5,-103.79 401,-113.79 404.5,-103.79 397.5,-103.79"/>
</g>
<!-- MusicModule -->
<g id="node5" class="node">
<title>MusicModule</title>
<polygon fill="#8dd3c7" stroke="black" points="342.05,-84.8 339.05,-88.8 318.05,-88.8 315.05,-84.8 247.95,-84.8 247.95,-48.8 342.05,-48.8 342.05,-84.8"/>
<text text-anchor="middle" x="295" y="-62.6" font-family="Times,serif" font-size="14.00">MusicModule</text>
</g>
<!-- MusicModule&#45;&gt;AppModule -->
<g id="edge5" class="edge">
<title>MusicModule&#45;&gt;AppModule</title>
<path fill="none" stroke="black" d="M295,-84.83C295,-101.2 295,-122.8 295,-122.8 295,-122.8 349.11,-122.8 349.11,-122.8"/>
<polygon fill="black" stroke="black" points="349.11,-126.3 359.11,-122.8 349.11,-119.3 349.11,-126.3"/>
</g>
<!-- PlaylistModule -->
<g id="node6" class="node">
<title>PlaylistModule</title>
<polygon fill="#8dd3c7" stroke="black" points="229.55,-84.8 226.55,-88.8 205.55,-88.8 202.55,-84.8 128.45,-84.8 128.45,-48.8 229.55,-48.8 229.55,-84.8"/>
<text text-anchor="middle" x="179" y="-62.6" font-family="Times,serif" font-size="14.00">PlaylistModule</text>
</g>
<!-- PlaylistModule&#45;&gt;AppModule -->
<g id="edge6" class="edge">
<title>PlaylistModule&#45;&gt;AppModule</title>
<path fill="none" stroke="black" d="M179,-84.91C179,-104.14 179,-131.8 179,-131.8 179,-131.8 349.24,-131.8 349.24,-131.8"/>
<polygon fill="black" stroke="black" points="349.24,-135.3 359.24,-131.8 349.24,-128.3 349.24,-135.3"/>
</g>
<!-- UserModule -->
<g id="node7" class="node">
<title>UserModule</title>
<polygon fill="#8dd3c7" stroke="black" points="109.98,-84.8 106.98,-88.8 85.98,-88.8 82.98,-84.8 24.02,-84.8 24.02,-48.8 109.98,-48.8 109.98,-84.8"/>
<text text-anchor="middle" x="67" y="-62.6" font-family="Times,serif" font-size="14.00">UserModule</text>
</g>
<!-- UserModule&#45;&gt;AppModule -->
<g id="edge7" class="edge">
<title>UserModule&#45;&gt;AppModule</title>
<path fill="none" stroke="black" d="M67,-85.09C67,-107.01 67,-140.8 67,-140.8 67,-140.8 349.04,-140.8 349.04,-140.8"/>
<polygon fill="black" stroke="black" points="349.04,-144.3 359.04,-140.8 349.04,-137.3 349.04,-144.3"/>
</g>
</g>
</svg>
