<?xml version="1.0" encoding="UTF-8" standalone="no"?>
<!DOCTYPE svg PUBLIC "-//W3C//DTD SVG 1.1//EN"
 "http://www.w3.org/Graphics/SVG/1.1/DTD/svg11.dtd">
<!-- Generated by graphviz version 2.47.3 (20210619.1520)
 -->
<!-- Title: dependencies Pages: 1 -->
<svg width="300pt" height="247pt"
 viewBox="0.00 0.00 300.00 246.80" xmlns="http://www.w3.org/2000/svg" xmlns:xlink="http://www.w3.org/1999/xlink">
<g id="graph0" class="graph" transform="scale(1 1) rotate(0) translate(4 242.8)">
<title>dependencies</title>
<polygon fill="white" stroke="transparent" points="-4,4 -4,-242.8 296,-242.8 296,4 -4,4"/>
<text text-anchor="middle" x="146" y="-8.2" font-family="sans-serif" font-size="14.00">dependencies</text>
<g id="clust1" class="cluster">
<title>cluster_FileModule</title>
<polygon fill="none" stroke="black" stroke-dasharray="1,5" points="8,-32.8 8,-230.8 284,-230.8 284,-32.8 8,-32.8"/>
</g>
<g id="clust4" class="cluster">
<title>cluster_FileModule_exports</title>
<polygon fill="none" stroke="black" points="96,-170.8 96,-222.8 196,-222.8 196,-170.8 96,-170.8"/>
</g>
<g id="clust3" class="cluster">
<title>cluster_FileModule_imports</title>
<polygon fill="none" stroke="black" points="150,-40.8 150,-92.8 276,-92.8 276,-40.8 150,-40.8"/>
</g>
<g id="clust6" class="cluster">
<title>cluster_FileModule_providers</title>
<polygon fill="none" stroke="black" points="16,-40.8 16,-92.8 142,-92.8 142,-40.8 16,-40.8"/>
</g>
<!-- DatabaseModule -->
<g id="node1" class="node">
<title>DatabaseModule</title>
<polygon fill="#8dd3c7" stroke="black" points="268.35,-84.8 265.35,-88.8 244.35,-88.8 241.35,-84.8 157.65,-84.8 157.65,-48.8 268.35,-48.8 268.35,-84.8"/>
<text text-anchor="middle" x="213" y="-62.6" font-family="Times,serif" font-size="14.00">DatabaseModule</text>
</g>
<!-- FileModule -->
<g id="node2" class="node">
<title>FileModule</title>
<polygon fill="#8dd3c7" stroke="black" points="186.83,-149.8 183.83,-153.8 162.83,-153.8 159.83,-149.8 105.17,-149.8 105.17,-113.8 186.83,-113.8 186.83,-149.8"/>
<text text-anchor="middle" x="146" y="-127.6" font-family="Times,serif" font-size="14.00">FileModule</text>
</g>
<!-- DatabaseModule&#45;&gt;FileModule -->
<g id="edge1" class="edge">
<title>DatabaseModule&#45;&gt;FileModule</title>
<path fill="none" stroke="black" d="M172.12,-84.91C172.12,-84.91 172.12,-103.79 172.12,-103.79"/>
<polygon fill="black" stroke="black" points="168.62,-103.79 172.12,-113.79 175.62,-103.79 168.62,-103.79"/>
</g>
<!-- FileService  -->
<g id="node3" class="node">
<title>FileService </title>
<polygon fill="#fb8072" stroke="black" points="187.76,-214.8 104.24,-214.8 104.24,-178.8 187.76,-178.8 187.76,-214.8"/>
<text text-anchor="middle" x="146" y="-192.6" font-family="Times,serif" font-size="14.00">FileService </text>
</g>
<!-- FileModule&#45;&gt;FileService  -->
<g id="edge2" class="edge">
<title>FileModule&#45;&gt;FileService </title>
<path fill="none" stroke="black" stroke-dasharray="5,2" d="M146,-149.91C146,-149.91 146,-168.79 146,-168.79"/>
<polygon fill="black" stroke="black" points="142.5,-168.79 146,-178.79 149.5,-168.79 142.5,-168.79"/>
</g>
<!-- FileService -->
<g id="node4" class="node">
<title>FileService</title>
<ellipse fill="#fdb462" stroke="black" cx="79" cy="-66.8" rx="55.03" ry="18"/>
<text text-anchor="middle" x="79" y="-62.6" font-family="Times,serif" font-size="14.00">FileService</text>
</g>
<!-- FileService&#45;&gt;FileModule -->
<g id="edge3" class="edge">
<title>FileService&#45;&gt;FileModule</title>
<path fill="none" stroke="black" d="M119.68,-79.03C119.68,-79.03 119.68,-103.48 119.68,-103.48"/>
<polygon fill="black" stroke="black" points="116.18,-103.48 119.68,-113.48 123.18,-103.48 116.18,-103.48"/>
</g>
</g>
</svg>
