<?xml version="1.0" encoding="UTF-8" standalone="no"?>
<!DOCTYPE svg PUBLIC "-//W3C//DTD SVG 1.1//EN"
 "http://www.w3.org/Graphics/SVG/1.1/DTD/svg11.dtd">
<!-- Generated by graphviz version 2.47.3 (20210619.1520)
 -->
<!-- Title: dependencies Pages: 1 -->
<svg width="1504pt" height="383pt"
 viewBox="0.00 0.00 1504.00 382.80" xmlns="http://www.w3.org/2000/svg" xmlns:xlink="http://www.w3.org/1999/xlink">
<g id="graph0" class="graph" transform="scale(1 1) rotate(0) translate(4 378.8)">
<title>dependencies</title>
<polygon fill="white" stroke="transparent" points="-4,4 -4,-378.8 1500,-378.8 1500,4 -4,4"/>
<text text-anchor="middle" x="748" y="-8.2" font-family="sans-serif" font-size="14.00">dependencies</text>
<g id="clust1" class="cluster">
<title>cluster_AlbumModule</title>
<polygon fill="none" stroke="black" stroke-dasharray="1,5" points="1176,-32.8 1176,-309.8 1488,-309.8 1488,-32.8 1176,-32.8"/>
</g>
<g id="clust3" class="cluster">
<title>cluster_AlbumModule_imports</title>
<polygon fill="none" stroke="black" points="1184,-40.8 1184,-157.8 1310,-157.8 1310,-40.8 1184,-40.8"/>
</g>
<g id="clust4" class="cluster">
<title>cluster_AlbumModule_exports</title>
<polygon fill="none" stroke="black" points="1323,-249.8 1323,-301.8 1439,-301.8 1439,-249.8 1323,-249.8"/>
</g>
<g id="clust6" class="cluster">
<title>cluster_AlbumModule_providers</title>
<polygon fill="none" stroke="black" points="1318,-105.8 1318,-157.8 1468,-157.8 1468,-105.8 1318,-105.8"/>
</g>
<g id="clust7" class="cluster">
<title>cluster_AppModule</title>
<polygon fill="none" stroke="black" stroke-dasharray="1,5" points="8,-173.8 8,-366.8 358,-366.8 358,-173.8 8,-173.8"/>
</g>
<g id="clust9" class="cluster">
<title>cluster_AppModule_imports</title>
<polygon fill="none" stroke="black" points="16,-181.8 16,-301.8 350,-301.8 350,-181.8 16,-181.8"/>
</g>
<g id="clust13" class="cluster">
<title>cluster_AuthModule</title>
<polygon fill="none" stroke="black" stroke-dasharray="1,5" points="624,-173.8 624,-241.8 1168,-241.8 1168,-173.8 624,-173.8"/>
</g>
<g id="clust16" class="cluster">
<title>cluster_AuthModule_exports</title>
<polygon fill="none" stroke="black" points="1054,-181.8 1054,-233.8 1160,-233.8 1160,-181.8 1054,-181.8"/>
</g>
<g id="clust18" class="cluster">
<title>cluster_AuthModule_providers</title>
<polygon fill="none" stroke="black" points="632,-181.8 632,-233.8 1046,-233.8 1046,-181.8 632,-181.8"/>
</g>
<g id="clust25" class="cluster">
<title>cluster_FileModule</title>
<polygon fill="none" stroke="black" stroke-dasharray="1,5" points="366,-173.8 366,-241.8 616,-241.8 616,-173.8 366,-173.8"/>
</g>
<g id="clust28" class="cluster">
<title>cluster_FileModule_exports</title>
<polygon fill="none" stroke="black" points="508,-181.8 508,-233.8 608,-233.8 608,-181.8 508,-181.8"/>
</g>
<g id="clust30" class="cluster">
<title>cluster_FileModule_providers</title>
<polygon fill="none" stroke="black" points="374,-181.8 374,-233.8 500,-233.8 500,-181.8 374,-181.8"/>
</g>
<g id="clust31" class="cluster">
<title>cluster_MusicModule</title>
<polygon fill="none" stroke="black" stroke-dasharray="1,5" points="146,-97.8 146,-165.8 426,-165.8 426,-97.8 146,-97.8"/>
</g>
<g id="clust34" class="cluster">
<title>cluster_MusicModule_exports</title>
<polygon fill="none" stroke="black" points="306,-105.8 306,-157.8 418,-157.8 418,-105.8 306,-105.8"/>
</g>
<g id="clust36" class="cluster">
<title>cluster_MusicModule_providers</title>
<polygon fill="none" stroke="black" points="154,-105.8 154,-157.8 298,-157.8 298,-105.8 154,-105.8"/>
</g>
<g id="clust37" class="cluster">
<title>cluster_PlaylistModule</title>
<polygon fill="none" stroke="black" stroke-dasharray="1,5" points="434,-97.8 434,-165.8 732,-165.8 732,-97.8 434,-97.8"/>
</g>
<g id="clust40" class="cluster">
<title>cluster_PlaylistModule_exports</title>
<polygon fill="none" stroke="black" points="604,-105.8 604,-157.8 724,-157.8 724,-105.8 604,-105.8"/>
</g>
<g id="clust42" class="cluster">
<title>cluster_PlaylistModule_providers</title>
<polygon fill="none" stroke="black" points="442,-105.8 442,-157.8 596,-157.8 596,-105.8 442,-105.8"/>
</g>
<g id="clust43" class="cluster">
<title>cluster_UserModule</title>
<polygon fill="none" stroke="black" stroke-dasharray="1,5" points="740,-97.8 740,-165.8 1000,-165.8 1000,-97.8 740,-97.8"/>
</g>
<g id="clust46" class="cluster">
<title>cluster_UserModule_exports</title>
<polygon fill="none" stroke="black" points="888,-105.8 888,-157.8 992,-157.8 992,-105.8 888,-105.8"/>
</g>
<g id="clust48" class="cluster">
<title>cluster_UserModule_providers</title>
<polygon fill="none" stroke="black" points="748,-105.8 748,-157.8 880,-157.8 880,-105.8 748,-105.8"/>
</g>
<!-- DatabaseModule -->
<g id="node1" class="node">
<title>DatabaseModule</title>
<polygon fill="#8dd3c7" stroke="black" points="1302.35,-84.8 1299.35,-88.8 1278.35,-88.8 1275.35,-84.8 1191.65,-84.8 1191.65,-48.8 1302.35,-48.8 1302.35,-84.8"/>
<text text-anchor="middle" x="1247" y="-62.6" font-family="Times,serif" font-size="14.00">DatabaseModule</text>
</g>
<!-- FileModule -->
<g id="node2" class="node">
<title>FileModule</title>
<polygon fill="#8dd3c7" stroke="black" points="1273.83,-149.8 1270.83,-153.8 1249.83,-153.8 1246.83,-149.8 1192.17,-149.8 1192.17,-113.8 1273.83,-113.8 1273.83,-149.8"/>
<text text-anchor="middle" x="1233" y="-127.6" font-family="Times,serif" font-size="14.00">FileModule</text>
</g>
<!-- DatabaseModule&#45;&gt;FileModule -->
<g id="edge17" class="edge">
<title>DatabaseModule&#45;&gt;FileModule</title>
<path fill="none" stroke="black" d="M1233,-84.91C1233,-84.91 1233,-103.79 1233,-103.79"/>
<polygon fill="black" stroke="black" points="1229.5,-103.79 1233,-113.79 1236.5,-103.79 1229.5,-103.79"/>
</g>
<!-- AlbumModule -->
<g id="node3" class="node">
<title>AlbumModule</title>
<polygon fill="#8dd3c7" stroke="black" points="1430.44,-225.8 1427.44,-229.8 1406.44,-229.8 1403.44,-225.8 1331.56,-225.8 1331.56,-189.8 1430.44,-189.8 1430.44,-225.8"/>
<text text-anchor="middle" x="1381" y="-203.6" font-family="Times,serif" font-size="14.00">AlbumModule</text>
</g>
<!-- DatabaseModule&#45;&gt;AlbumModule -->
<g id="edge1" class="edge">
<title>DatabaseModule&#45;&gt;AlbumModule</title>
<path fill="none" stroke="black" d="M1292.84,-84.88C1292.84,-121.03 1292.84,-198.8 1292.84,-198.8 1292.84,-198.8 1321.76,-198.8 1321.76,-198.8"/>
<polygon fill="black" stroke="black" points="1321.76,-202.3 1331.76,-198.8 1321.76,-195.3 1321.76,-202.3"/>
</g>
<!-- MusicModule -->
<g id="node7" class="node">
<title>MusicModule</title>
<polygon fill="#8dd3c7" stroke="black" points="118.05,-225.8 115.05,-229.8 94.05,-229.8 91.05,-225.8 23.95,-225.8 23.95,-189.8 118.05,-189.8 118.05,-225.8"/>
<text text-anchor="middle" x="71" y="-203.6" font-family="Times,serif" font-size="14.00">MusicModule</text>
</g>
<!-- DatabaseModule&#45;&gt;MusicModule -->
<g id="edge20" class="edge">
<title>DatabaseModule&#45;&gt;MusicModule</title>
<path fill="none" stroke="black" d="M1191.33,-57.8C954.46,-57.8 42.64,-57.8 42.64,-57.8 42.64,-57.8 42.64,-179.71 42.64,-179.71"/>
<polygon fill="black" stroke="black" points="39.14,-179.71 42.64,-189.71 46.14,-179.71 39.14,-179.71"/>
</g>
<!-- PlaylistModule -->
<g id="node8" class="node">
<title>PlaylistModule</title>
<polygon fill="#8dd3c7" stroke="black" points="237.55,-225.8 234.55,-229.8 213.55,-229.8 210.55,-225.8 136.45,-225.8 136.45,-189.8 237.55,-189.8 237.55,-225.8"/>
<text text-anchor="middle" x="187" y="-203.6" font-family="Times,serif" font-size="14.00">PlaylistModule</text>
</g>
<!-- DatabaseModule&#45;&gt;PlaylistModule -->
<g id="edge24" class="edge">
<title>DatabaseModule&#45;&gt;PlaylistModule</title>
<path fill="none" stroke="black" d="M1191.42,-66.8C968.23,-66.8 149.05,-66.8 149.05,-66.8 149.05,-66.8 149.05,-179.66 149.05,-179.66"/>
<polygon fill="black" stroke="black" points="145.55,-179.66 149.05,-189.66 152.55,-179.66 145.55,-179.66"/>
</g>
<!-- UserModule -->
<g id="node9" class="node">
<title>UserModule</title>
<polygon fill="#8dd3c7" stroke="black" points="341.98,-225.8 338.98,-229.8 317.98,-229.8 314.98,-225.8 256.02,-225.8 256.02,-189.8 341.98,-189.8 341.98,-225.8"/>
<text text-anchor="middle" x="299" y="-203.6" font-family="Times,serif" font-size="14.00">UserModule</text>
</g>
<!-- DatabaseModule&#45;&gt;UserModule -->
<g id="edge28" class="edge">
<title>DatabaseModule&#45;&gt;UserModule</title>
<path fill="none" stroke="black" d="M1191.41,-75.8C988.83,-75.8 301.95,-75.8 301.95,-75.8 301.95,-75.8 301.95,-179.72 301.95,-179.72"/>
<polygon fill="black" stroke="black" points="298.45,-179.72 301.95,-189.72 305.45,-179.72 298.45,-179.72"/>
</g>
<!-- AppModule -->
<g id="node10" class="node">
<title>AppModule</title>
<polygon fill="#8dd3c7" stroke="black" points="276.66,-358.8 273.66,-362.8 252.66,-362.8 249.66,-358.8 193.34,-358.8 193.34,-322.8 276.66,-322.8 276.66,-358.8"/>
<text text-anchor="middle" x="235" y="-336.6" font-family="Times,serif" font-size="14.00">AppModule</text>
</g>
<!-- DatabaseModule&#45;&gt;AppModule -->
<g id="edge7" class="edge">
<title>DatabaseModule&#45;&gt;AppModule</title>
<path fill="none" stroke="black" d="M1283.25,-85.2C1283.25,-146.64 1283.25,-340.8 1283.25,-340.8 1283.25,-340.8 286.74,-340.8 286.74,-340.8"/>
<polygon fill="black" stroke="black" points="286.74,-337.3 276.74,-340.8 286.74,-344.3 286.74,-337.3"/>
</g>
<!-- FileModule&#45;&gt;AlbumModule -->
<g id="edge2" class="edge">
<title>FileModule&#45;&gt;AlbumModule</title>
<path fill="none" stroke="black" d="M1263.5,-149.81C1263.5,-172.29 1263.5,-207.8 1263.5,-207.8 1263.5,-207.8 1321.51,-207.8 1321.51,-207.8"/>
<polygon fill="black" stroke="black" points="1321.51,-211.3 1331.51,-207.8 1321.51,-204.3 1321.51,-211.3"/>
</g>
<!-- FileModule&#45;&gt;MusicModule -->
<g id="edge21" class="edge">
<title>FileModule&#45;&gt;MusicModule</title>
<path fill="none" stroke="black" d="M1202.5,-149.86C1202.5,-154.29 1202.5,-157.8 1202.5,-157.8 1202.5,-157.8 99.36,-157.8 99.36,-157.8 99.36,-157.8 99.36,-179.75 99.36,-179.75"/>
<polygon fill="black" stroke="black" points="95.86,-179.75 99.36,-189.75 102.86,-179.75 95.86,-179.75"/>
</g>
<!-- FileModule&#45;&gt;PlaylistModule -->
<g id="edge25" class="edge">
<title>FileModule&#45;&gt;PlaylistModule</title>
<path fill="none" stroke="black" d="M1212.67,-149.87C1212.67,-159.26 1212.67,-168.8 1212.67,-168.8 1212.67,-168.8 218.8,-168.8 218.8,-168.8 218.8,-168.8 218.8,-179.67 218.8,-179.67"/>
<polygon fill="black" stroke="black" points="215.3,-179.67 218.8,-189.67 222.3,-179.67 215.3,-179.67"/>
</g>
<!-- FileModule&#45;&gt;UserModule -->
<g id="edge29" class="edge">
<title>FileModule&#45;&gt;UserModule</title>
<path fill="none" stroke="black" d="M1222.83,-149.95C1222.83,-163.54 1222.83,-179.8 1222.83,-179.8 1222.83,-179.8 336.34,-179.8 336.34,-179.8 336.34,-179.8 336.34,-180.78 336.34,-180.78"/>
<polygon fill="black" stroke="black" points="332.84,-179.59 336.34,-189.59 339.84,-179.59 332.84,-179.59"/>
</g>
<!-- FileModule&#45;&gt;AppModule -->
<g id="edge8" class="edge">
<title>FileModule&#45;&gt;AppModule</title>
<path fill="none" stroke="black" d="M1253.33,-149.9C1253.33,-199.13 1253.33,-331.8 1253.33,-331.8 1253.33,-331.8 286.82,-331.8 286.82,-331.8"/>
<polygon fill="black" stroke="black" points="286.82,-328.3 276.82,-331.8 286.82,-335.3 286.82,-328.3"/>
</g>
<!-- FileService  -->
<g id="node15" class="node">
<title>FileService </title>
<polygon fill="#fb8072" stroke="black" points="599.76,-225.8 516.24,-225.8 516.24,-189.8 599.76,-189.8 599.76,-225.8"/>
<text text-anchor="middle" x="558" y="-203.6" font-family="Times,serif" font-size="14.00">FileService </text>
</g>
<!-- FileModule&#45;&gt;FileService  -->
<g id="edge18" class="edge">
<title>FileModule&#45;&gt;FileService </title>
<path fill="none" stroke="black" stroke-dasharray="5,2" d="M1243.17,-149.81C1243.17,-165.85 1243.17,-186.8 1243.17,-186.8 1243.17,-186.8 593.8,-186.8 593.8,-186.8 593.8,-186.8 593.8,-187.09 593.8,-187.09"/>
<polygon fill="black" stroke="black" points="590.3,-179.72 593.8,-189.72 597.3,-179.72 590.3,-179.72"/>
</g>
<!-- AlbumService  -->
<g id="node4" class="node">
<title>AlbumService </title>
<polygon fill="#fb8072" stroke="black" points="1431.37,-293.8 1330.63,-293.8 1330.63,-257.8 1431.37,-257.8 1431.37,-293.8"/>
<text text-anchor="middle" x="1381" y="-271.6" font-family="Times,serif" font-size="14.00">AlbumService </text>
</g>
<!-- AlbumModule&#45;&gt;AlbumService  -->
<g id="edge3" class="edge">
<title>AlbumModule&#45;&gt;AlbumService </title>
<path fill="none" stroke="black" stroke-dasharray="5,2" d="M1381,-226.02C1381,-226.02 1381,-247.53 1381,-247.53"/>
<polygon fill="black" stroke="black" points="1377.5,-247.53 1381,-257.53 1384.5,-247.53 1377.5,-247.53"/>
</g>
<!-- AlbumModule&#45;&gt;AppModule -->
<g id="edge5" class="edge">
<title>AlbumModule&#45;&gt;AppModule</title>
<path fill="none" stroke="black" d="M1331.48,-216.8C1321.66,-216.8 1314.3,-216.8 1314.3,-216.8 1314.3,-216.8 1314.3,-349.8 1314.3,-349.8 1314.3,-349.8 286.98,-349.8 286.98,-349.8"/>
<polygon fill="black" stroke="black" points="286.98,-346.3 276.98,-349.8 286.98,-353.3 286.98,-346.3"/>
</g>
<!-- AlbumService -->
<g id="node5" class="node">
<title>AlbumService</title>
<ellipse fill="#fdb462" stroke="black" cx="1393" cy="-131.8" rx="66.63" ry="18"/>
<text text-anchor="middle" x="1393" y="-127.6" font-family="Times,serif" font-size="14.00">AlbumService</text>
</g>
<!-- AlbumService&#45;&gt;AlbumModule -->
<g id="edge4" class="edge">
<title>AlbumService&#45;&gt;AlbumModule</title>
<path fill="none" stroke="black" d="M1381,-149.81C1381,-149.81 1381,-179.65 1381,-179.65"/>
<polygon fill="black" stroke="black" points="1377.5,-179.65 1381,-189.65 1384.5,-179.65 1377.5,-179.65"/>
</g>
<!-- AuthModule -->
<g id="node6" class="node">
<title>AuthModule</title>
<polygon fill="#8dd3c7" stroke="black" points="341.55,-293.8 338.55,-297.8 317.55,-297.8 314.55,-293.8 254.45,-293.8 254.45,-257.8 341.55,-257.8 341.55,-293.8"/>
<text text-anchor="middle" x="298" y="-271.6" font-family="Times,serif" font-size="14.00">AuthModule</text>
</g>
<!-- AuthModule&#45;&gt;AppModule -->
<g id="edge6" class="edge">
<title>AuthModule&#45;&gt;AppModule</title>
<path fill="none" stroke="black" d="M265.53,-293.91C265.53,-293.91 265.53,-312.79 265.53,-312.79"/>
<polygon fill="black" stroke="black" points="262.03,-312.79 265.53,-322.79 269.03,-312.79 262.03,-312.79"/>
</g>
<!-- AuthService  -->
<g id="node11" class="node">
<title>AuthService </title>
<polygon fill="#fb8072" stroke="black" points="1151.98,-225.8 1062.02,-225.8 1062.02,-189.8 1151.98,-189.8 1151.98,-225.8"/>
<text text-anchor="middle" x="1107" y="-203.6" font-family="Times,serif" font-size="14.00">AuthService </text>
</g>
<!-- AuthModule&#45;&gt;AuthService  -->
<g id="edge13" class="edge">
<title>AuthModule&#45;&gt;AuthService </title>
<path fill="none" stroke="black" stroke-dasharray="5,2" d="M341.78,-286.8C510.21,-286.8 1107,-286.8 1107,-286.8 1107,-286.8 1107,-236.12 1107,-236.12"/>
<polygon fill="black" stroke="black" points="1110.5,-236.12 1107,-226.12 1103.5,-236.12 1110.5,-236.12"/>
</g>
<!-- MusicModule&#45;&gt;AppModule -->
<g id="edge9" class="edge">
<title>MusicModule&#45;&gt;AppModule</title>
<path fill="none" stroke="black" d="M71,-226.01C71,-262.44 71,-340.8 71,-340.8 71,-340.8 183.19,-340.8 183.19,-340.8"/>
<polygon fill="black" stroke="black" points="183.19,-344.3 193.19,-340.8 183.19,-337.3 183.19,-344.3"/>
</g>
<!-- MusicService  -->
<g id="node17" class="node">
<title>MusicService </title>
<polygon fill="#fb8072" stroke="black" points="410.47,-149.8 313.53,-149.8 313.53,-113.8 410.47,-113.8 410.47,-149.8"/>
<text text-anchor="middle" x="362" y="-127.6" font-family="Times,serif" font-size="14.00">MusicService </text>
</g>
<!-- MusicModule&#45;&gt;MusicService  -->
<g id="edge22" class="edge">
<title>MusicModule&#45;&gt;MusicService </title>
<path fill="none" stroke="black" stroke-dasharray="5,2" d="M61.55,-189.52C61.55,-173.85 61.55,-153.8 61.55,-153.8 61.55,-153.8 319.41,-153.8 319.41,-153.8 319.41,-153.8 319.41,-153.42 319.41,-153.42"/>
<polygon fill="black" stroke="black" points="322.91,-159.97 319.41,-149.97 315.91,-159.97 322.91,-159.97"/>
</g>
<!-- PlaylistModule&#45;&gt;AppModule -->
<g id="edge10" class="edge">
<title>PlaylistModule&#45;&gt;AppModule</title>
<path fill="none" stroke="black" d="M215.47,-226.01C215.47,-226.01 215.47,-312.38 215.47,-312.38"/>
<polygon fill="black" stroke="black" points="211.97,-312.38 215.47,-322.38 218.97,-312.38 211.97,-312.38"/>
</g>
<!-- PlaylistService  -->
<g id="node19" class="node">
<title>PlaylistService </title>
<polygon fill="#fb8072" stroke="black" points="715.98,-149.8 612.02,-149.8 612.02,-113.8 715.98,-113.8 715.98,-149.8"/>
<text text-anchor="middle" x="664" y="-127.6" font-family="Times,serif" font-size="14.00">PlaylistService </text>
</g>
<!-- PlaylistModule&#45;&gt;PlaylistService  -->
<g id="edge26" class="edge">
<title>PlaylistModule&#45;&gt;PlaylistService </title>
<path fill="none" stroke="black" stroke-dasharray="5,2" d="M180.85,-189.31C180.85,-177.66 180.85,-164.8 180.85,-164.8 180.85,-164.8 626.03,-164.8 626.03,-164.8 626.03,-164.8 626.03,-159.84 626.03,-159.84"/>
<polygon fill="black" stroke="black" points="629.53,-159.84 626.03,-149.84 622.53,-159.84 629.53,-159.84"/>
</g>
<!-- UserModule&#45;&gt;AuthModule -->
<g id="edge12" class="edge">
<title>UserModule&#45;&gt;AuthModule</title>
<path fill="none" stroke="black" d="M298.89,-226.02C298.89,-226.02 298.89,-247.53 298.89,-247.53"/>
<polygon fill="black" stroke="black" points="295.39,-247.53 298.89,-257.53 302.39,-247.53 295.39,-247.53"/>
</g>
<!-- UserModule&#45;&gt;AppModule -->
<g id="edge11" class="edge">
<title>UserModule&#45;&gt;AppModule</title>
<path fill="none" stroke="black" d="M255.72,-207.8C249.96,-207.8 246,-207.8 246,-207.8 246,-207.8 246,-312.59 246,-312.59"/>
<polygon fill="black" stroke="black" points="242.5,-312.59 246,-322.59 249.5,-312.59 242.5,-312.59"/>
</g>
<!-- UserService  -->
<g id="node21" class="node">
<title>UserService </title>
<polygon fill="#fb8072" stroke="black" points="983.9,-149.8 896.1,-149.8 896.1,-113.8 983.9,-113.8 983.9,-149.8"/>
<text text-anchor="middle" x="940" y="-127.6" font-family="Times,serif" font-size="14.00">UserService </text>
</g>
<!-- UserModule&#45;&gt;UserService  -->
<g id="edge30" class="edge">
<title>UserModule&#45;&gt;UserService </title>
<path fill="none" stroke="black" stroke-dasharray="5,2" d="M325.05,-189.56C325.05,-182.37 325.05,-175.8 325.05,-175.8 325.05,-175.8 910.66,-175.8 910.66,-175.8 910.66,-175.8 910.66,-159.95 910.66,-159.95"/>
<polygon fill="black" stroke="black" points="914.16,-159.95 910.66,-149.95 907.16,-159.95 914.16,-159.95"/>
</g>
<!-- AuthService -->
<g id="node12" class="node">
<title>AuthService</title>
<ellipse fill="#fdb462" stroke="black" cx="979" cy="-207.8" rx="59.11" ry="18"/>
<text text-anchor="middle" x="979" y="-203.6" font-family="Times,serif" font-size="14.00">AuthService</text>
</g>
<!-- AuthService&#45;&gt;AuthModule -->
<g id="edge14" class="edge">
<title>AuthService&#45;&gt;AuthModule</title>
<path fill="none" stroke="black" d="M979,-225.97C979,-247.3 979,-279.8 979,-279.8 979,-279.8 351.64,-279.8 351.64,-279.8"/>
<polygon fill="black" stroke="black" points="351.64,-276.3 341.64,-279.8 351.64,-283.3 351.64,-276.3"/>
</g>
<!-- JwtStrategy -->
<g id="node13" class="node">
<title>JwtStrategy</title>
<ellipse fill="#fdb462" stroke="black" cx="845" cy="-207.8" rx="56.76" ry="18"/>
<text text-anchor="middle" x="845" y="-203.6" font-family="Times,serif" font-size="14.00">JwtStrategy</text>
</g>
<!-- JwtStrategy&#45;&gt;AuthModule -->
<g id="edge15" class="edge">
<title>JwtStrategy&#45;&gt;AuthModule</title>
<path fill="none" stroke="black" d="M845,-225.91C845,-245.14 845,-272.8 845,-272.8 845,-272.8 351.84,-272.8 351.84,-272.8"/>
<polygon fill="black" stroke="black" points="351.84,-269.3 341.84,-272.8 351.84,-276.3 351.84,-269.3"/>
</g>
<!-- LocalStrategy -->
<g id="node14" class="node">
<title>LocalStrategy</title>
<ellipse fill="#fdb462" stroke="black" cx="705" cy="-207.8" rx="65.41" ry="18"/>
<text text-anchor="middle" x="705" y="-203.6" font-family="Times,serif" font-size="14.00">LocalStrategy</text>
</g>
<!-- LocalStrategy&#45;&gt;AuthModule -->
<g id="edge16" class="edge">
<title>LocalStrategy&#45;&gt;AuthModule</title>
<path fill="none" stroke="black" d="M705,-225.83C705,-242.86 705,-265.8 705,-265.8 705,-265.8 351.56,-265.8 351.56,-265.8"/>
<polygon fill="black" stroke="black" points="351.56,-262.3 341.56,-265.8 351.56,-269.3 351.56,-262.3"/>
</g>
<!-- FileService -->
<g id="node16" class="node">
<title>FileService</title>
<ellipse fill="#fdb462" stroke="black" cx="437" cy="-207.8" rx="55.03" ry="18"/>
<text text-anchor="middle" x="437" y="-203.6" font-family="Times,serif" font-size="14.00">FileService</text>
</g>
<!-- FileService&#45;&gt;FileModule -->
<g id="edge19" class="edge">
<title>FileService&#45;&gt;FileModule</title>
<path fill="none" stroke="black" d="M478.02,-195.59C478.02,-189.25 478.02,-182.8 478.02,-182.8 478.02,-182.8 1233,-182.8 1233,-182.8 1233,-182.8 1233,-159.92 1233,-159.92"/>
<polygon fill="black" stroke="black" points="1236.5,-159.92 1233,-149.92 1229.5,-159.92 1236.5,-159.92"/>
</g>
<!-- MusicService -->
<g id="node18" class="node">
<title>MusicService</title>
<ellipse fill="#fdb462" stroke="black" cx="226" cy="-131.8" rx="64.26" ry="18"/>
<text text-anchor="middle" x="226" y="-127.6" font-family="Times,serif" font-size="14.00">MusicService</text>
</g>
<!-- MusicService&#45;&gt;MusicModule -->
<g id="edge23" class="edge">
<title>MusicService&#45;&gt;MusicModule</title>
<path fill="none" stroke="black" d="M161.74,-131.8C122.75,-131.8 80.45,-131.8 80.45,-131.8 80.45,-131.8 80.45,-179.79 80.45,-179.79"/>
<polygon fill="black" stroke="black" points="76.95,-179.79 80.45,-189.79 83.95,-179.79 76.95,-179.79"/>
</g>
<!-- PlaylistService -->
<g id="node20" class="node">
<title>PlaylistService</title>
<ellipse fill="#fdb462" stroke="black" cx="519" cy="-131.8" rx="68.93" ry="18"/>
<text text-anchor="middle" x="519" y="-127.6" font-family="Times,serif" font-size="14.00">PlaylistService</text>
</g>
<!-- PlaylistService&#45;&gt;PlaylistModule -->
<g id="edge27" class="edge">
<title>PlaylistService&#45;&gt;PlaylistModule</title>
<path fill="none" stroke="black" d="M464.03,-142.93C464.03,-151.11 464.03,-160.8 464.03,-160.8 464.03,-160.8 199.82,-160.8 199.82,-160.8 199.82,-160.8 199.82,-179.76 199.82,-179.76"/>
<polygon fill="black" stroke="black" points="196.32,-179.76 199.82,-189.76 203.32,-179.76 196.32,-179.76"/>
</g>
<!-- UserService -->
<g id="node22" class="node">
<title>UserService</title>
<ellipse fill="#fdb462" stroke="black" cx="814" cy="-131.8" rx="58.44" ry="18"/>
<text text-anchor="middle" x="814" y="-127.6" font-family="Times,serif" font-size="14.00">UserService</text>
</g>
<!-- UserService&#45;&gt;UserModule -->
<g id="edge31" class="edge">
<title>UserService&#45;&gt;UserModule</title>
<path fill="none" stroke="black" d="M762.99,-140.68C762.99,-152.46 762.99,-171.8 762.99,-171.8 762.99,-171.8 330.7,-171.8 330.7,-171.8 330.7,-171.8 330.7,-179.38 330.7,-179.38"/>
<polygon fill="black" stroke="black" points="327.2,-179.38 330.7,-189.38 334.2,-179.38 327.2,-179.38"/>
</g>
</g>
</svg>
